<svg id="Layer_1" data-name="Layer 1" xmlns="http://www.w3.org/2000/svg" viewBox="0 0 134.14 161.95"><defs><style>.cls-1{fill:#00aeef;}.cls-2{fill:#f7941d;}</style></defs><rect class="cls-1" width="134.14" height="26.83"/><path class="cls-1" d="M267.07,205.46v26.83H221.74c-23.28,0-42.16-19.77-42.16-43.06V141.79h26.83v44.84c0,9.91,8,18.83,17.93,18.83Z" transform="translate(-132.93 -117.07)"/><path class="cls-2" d="M267.07,252.08v26.83h-28C164.77,281.66,132.93,231,132.93,172.39v-9h26.82v7.21c0,44.83,19.83,86.12,81.18,81.53Z" transform="translate(-132.93 -117.07)"/><path class="cls-1" d="M265.44,186.07c0,9.31-8,15.57-18.2,15.57a22.75,22.75,0,0,1-8.59-1.55,16.31,16.31,0,0,1-5.78-3.89,13.1,13.1,0,0,1-3.6-9.06,13.86,13.86,0,0,1,4.53-10.49,14.35,14.35,0,0,1,4.92,3.3,10.22,10.22,0,0,0-2,6.21,9.37,9.37,0,0,0,2.37,6.78,10.06,10.06,0,0,0,5.58,3.15,12.11,12.11,0,0,0,2.76.29c6.51,0,10.7-4,10.7-9.56,0-6.51-4.53-9.65-11.78-11.69A14.42,14.42,0,0,0,244,176a19.55,19.55,0,0,0-4.52-3,1.73,1.73,0,0,1,.39-.18l-.09-.26a16,16,0,0,1-1.54-.82,15.16,15.16,0,0,1-3.84-3.12,12,12,0,0,1-3.1-8.07,13.09,13.09,0,0,1,3-8.48,7.58,7.58,0,0,1,4.64,4.32,8.89,8.89,0,0,0-.77,3.66,8.17,8.17,0,0,0,.81,3.71,9.56,9.56,0,0,0,4.36,4.25,21.89,21.89,0,0,0,5,1.92c4.61-1.56,8.16-4.86,8.16-9.72,0-4.29-2.56-8.74-9.07-8.74a11.05,11.05,0,0,0-3.37.49,12.93,12.93,0,0,0-4.67-3.84,19.21,19.21,0,0,1,8.45-1.83c10.39,0,15.57,6.51,15.57,13.18,0,4.52-2.23,9.38-8.81,12.52v.25C261.31,174.88,265.44,179.58,265.44,186.07Z" transform="translate(-132.93 -117.07)"/><path class="cls-2" d="M248.58,186.07a14.28,14.28,0,0,1-3.94,10,10.06,10.06,0,0,1-5.58-3.15,9.23,9.23,0,0,0,2.19-6.12,9.59,9.59,0,0,0-2.53-6.87,14.35,14.35,0,0,0-4.92-3.3,34.8,34.8,0,0,0-4.34-1.52c-6.26,1.81-9.63,5.92-9.63,11-.25,5.43,3.88,10.22,10.71,10.22a13.35,13.35,0,0,0,2.33-.18,16.31,16.31,0,0,0,5.78,3.89,22,22,0,0,1-8.29,1.55c-11.19,0-18-6.66-18-14.5,0-6.74,4-11.53,10.63-14.32l-.09-.26c-5.93-2.79-8.48-7.4-8.48-12,0-8.48,7.17-14.26,16.55-14.26a18.41,18.41,0,0,1,8.41,1.83A12.93,12.93,0,0,1,244.1,152a12.36,12.36,0,0,1,2.49,7.51,12.51,12.51,0,0,1-3.26,8.54,9.56,9.56,0,0,1-4.36-4.25,8.82,8.82,0,0,0,.72-3.55,9.61,9.61,0,0,0-.76-3.82,7.58,7.58,0,0,0-4.64-4.32,10.83,10.83,0,0,0-3.68-.6c-6,0-9.31,4-9.31,8.58,0,5.36,4,8.23,10.23,9.88a16.63,16.63,0,0,0,2.9-1.31,15.16,15.16,0,0,0,3.84,3.12,4.52,4.52,0,0,1-.49.25v.25c.6.24,1.17.49,1.73.76a19.55,19.55,0,0,1,4.52,3A13.14,13.14,0,0,1,248.58,186.07Z" transform="translate(-132.93 -117.07)"/></svg>